<svg width="32" height="32" viewBox="0 0 100 100" fill="none" xmlns="http://www.w3.org/2000/svg">
  <defs>
    <linearGradient id="pigeon-gradient" x1="0%" y1="100%" x2="100%" y2="0%">
      <stop offset="0%" stopColor="#f59e0b" />
      <stop offset="40%" stopColor="#ec4899" />
      <stop offset="100%" stopColor="#8b5cf6" />
    </linearGradient>
  </defs>
  {/* Trailing 4-pointed Stars */}
  <path d="M12 28C14 30 16 32 12 34C10 32 8 30 12 28Z" fill="url(#pigeon-gradient)" opacity="0.6" />
  <path d="M20 38C23 41 26 44 20 47C17 44 14 41 20 38Z" fill="url(#pigeon-gradient)" opacity="0.8" />
  <path d="M15 52C16.5 53.5 18 55 15 56.5C13.5 55 12 53.5 15 52Z" fill="url(#pigeon-gradient)" opacity="0.4" />
  {/* High-Fidelity Silhouette */}
  <path d="M92 48.5C88 47 82 46 78 47.5C74 49 71 52 70 56C68.5 61 69 67 71 72C68 70 65.5 66 64 62C61 54 61.5 45 65 38C68.5 31 75 25 82 22C72 26 62 34 58 45C54 56 56 68 63 78C56 71 52 62 52 52C52 42 56 31 63 22C43 32 30 52 32 75C34 68 38 62 45 58C52 54 60 55 68 58C58 55 48 55 38 58C36 72 38 85 45 92C38 84 34 74 32 64C28 62 22 62 16 64" fill="url(#pigeon-gradient)" />
  {/* Precision Beak */}
  <path d="M94 48L88 44C91 46 93 47 94 48Z" fill="url(#pigeon-gradient)" />
</svg>
